<svg width="57" height="40" viewBox="0 0 57 40" fill="none" xmlns="http://www.w3.org/2000/svg">
<path d="M52.9271 16.0005H13.8682L23.2358 6.84959C24.0028 6.09712 24.4336 5.07655 24.4336 4.0124C24.4336 2.94824 24.0028 1.92767 23.2358 1.1752C22.4689 0.422732 21.4287 0 20.3441 0C19.2595 0 18.2193 0.422732 17.4523 1.1752L1.16083 17.1594C0.790028 17.5394 0.499367 17.9876 0.305521 18.4781C-0.10184 19.451 -0.10184 20.5422 0.305521 21.5151C0.499367 22.0056 0.790028 22.4537 1.16083 22.8338L17.4523 38.818C17.831 39.1925 18.2814 39.4898 18.7778 39.6927C19.2741 39.8956 19.8064 40 20.3441 40C20.8818 40 21.4141 39.8956 21.9104 39.6927C22.4067 39.4898 22.8572 39.1925 23.2358 38.818C23.6176 38.4465 23.9206 38.0045 24.1273 37.5176C24.3341 37.0306 24.4406 36.5083 24.4406 35.9808C24.4406 35.4533 24.3341 34.9309 24.1273 34.444C23.9206 33.957 23.6176 33.5151 23.2358 33.1436L13.8682 23.9926H52.9271C54.0073 23.9926 55.0433 23.5716 55.8071 22.8222C56.5709 22.0728 57 21.0564 57 19.9966C57 18.9368 56.5709 17.9204 55.8071 17.171C55.0433 16.4216 54.0073 16.0005 52.9271 16.0005Z" fill="black"/>
</svg>
