<svg width="100" height="100" viewBox="0 0 100 100" fill="none" xmlns="http://www.w3.org/2000/svg">
<rect y="5.47949" width="94.5205" height="94.5205" rx="26" fill="white"/>
<path d="M95.2447 4.37472C89.4327 -1.45824 79.3939 -1.45824 73.0536 4.37472L30.2565 46.266C26.5579 49.9779 23.9161 54.7503 22.8594 60.053L20.746 71.719C20.2176 73.3098 20.746 75.4309 22.3311 76.4914C23.3878 77.5519 24.4445 78.0822 26.0296 78.0822H27.0863L38.7102 75.9611C43.9938 74.9006 48.749 72.2492 52.4476 68.5374L95.2447 26.1158C98.4148 23.4644 99.9999 19.2223 99.9999 14.9801C99.9999 10.738 98.4148 7.02607 95.2447 4.37472ZM45.5789 60.5833C43.4654 62.7044 40.2953 64.2952 37.1251 64.8255L32.8983 65.886L33.955 62.1741C34.4833 58.9925 36.0684 56.3411 38.7102 53.6898L71.4685 21.3433L78.8655 28.2369L45.5789 60.5833ZM87.8476 18.692L85.7342 20.8131L78.3372 13.9196L80.4506 11.7985C81.5073 10.738 83.0924 10.2077 84.1491 10.2077C85.7342 10.2077 86.7909 10.738 87.8476 11.7985C88.9044 12.859 89.4327 13.9196 89.4327 14.9801C89.4327 16.0407 89.4327 17.6315 87.8476 18.692Z" fill="black"/>
<path d="M89.2694 41.7124C86.1187 41.7124 84.0183 43.8128 84.0183 46.9635V73.7443C84.0183 82.6713 77.1918 89.4978 68.2648 89.4978H26.2557C17.3288 89.4978 10.5023 82.6713 10.5023 73.7443V31.7352C10.5023 22.8083 17.3288 15.9818 26.2557 15.9818H52.5114C55.6621 15.9818 57.7626 13.8813 57.7626 10.7306C57.7626 7.57995 55.6621 5.47949 52.5114 5.47949H26.2557C11.5525 5.47949 0 17.032 0 31.7352V73.7443C0 88.4475 11.5525 100 26.2557 100H68.2648C82.968 100 94.5205 88.4475 94.5205 73.7443V46.9635C94.5205 44.3379 92.4201 41.7124 89.2694 41.7124Z" fill="black"/>
</svg>
