<svg xmlns="http://www.w3.org/2000/svg" viewBox="3 2 26 28" x="0px" y="0px"><g data-name="Layer 2"><path d="M8,9H18a1,1,0,0,0,0-2H8A1,1,0,0,0,8,9Z"/><path d="M8,13H18a1,1,0,0,0,0-2H8a1,1,0,0,0,0,2Z"/><path d="M12,15H8a1,1,0,0,0,0,2h4a1,1,0,0,0,0-2Z"/><path d="M29,13.414a2.981,2.981,0,0,0-.878-2.121,3.073,3.073,0,0,0-4.243,0L23,12.172V5a3,3,0,0,0-3-3H6A3,3,0,0,0,3,5V27a3,3,0,0,0,3,3H20a3,3,0,0,0,3-3V20.656l5.121-5.12A2.978,2.978,0,0,0,29,13.414ZM21,27a1,1,0,0,1-1,1H6a1,1,0,0,1-1-1V5A1,1,0,0,1,6,4H20a1,1,0,0,1,1,1v9.172l-6.541,6.54a1,1,0,0,0-.271.5l-.752,3.581A1,1,0,0,0,14.414,26a1.036,1.036,0,0,0,.206-.021l3.581-.753a.993.993,0,0,0,.5-.272l2.3-2.3Zm5.707-12.879L17.5,23.33l-1.791.376.376-1.79,9.209-9.209a1.021,1.021,0,0,1,1.414,0,1,1,0,0,1,0,1.414Z"/></g><text x="0" y="47" fill="#000000" font-size="5px" font-weight="bold" font-family="'Helvetica Neue', Helvetica, Arial-Unicode, Arial, Sans-serif">Created by Saepul Nahwan</text><text x="0" y="52" fill="#000000" font-size="5px" font-weight="bold" font-family="'Helvetica Neue', Helvetica, Arial-Unicode, Arial, Sans-serif">from the Noun Project</text></svg>