<svg width="357" height="357" viewBox="0 0 357 357" fill="none" xmlns="http://www.w3.org/2000/svg">
<g clip-path="url(#clip0_389_154)">
<mask id="mask0_389_154" style="mask-type:alpha" maskUnits="userSpaceOnUse" x="132" y="-17" width="238" height="235">
<path d="M133.5 162C133.5 162 265 56 231.5 56C198 56 199.5 0.499998 231.5 0.499998C263.5 0.499998 301 -16 301 -16L369 7.5C369 7.5 356 99 357 125C358 151 306 165.5 300.5 125C295 84.5 252 188.5 252 188.5L155 216.5L133.5 162Z" fill="#D9D9D9" stroke="black"/>
</mask>
<g mask="url(#mask0_389_154)">
<path d="M164.555 153.055C153.815 163.794 153.815 181.206 164.555 191.945C175.294 202.685 192.706 202.685 203.445 191.945L164.555 153.055ZM356.5 27.5C356.5 12.3122 344.188 -1.31951e-05 329 -1.31951e-05L81.5 -1.31951e-05C66.3122 -1.31951e-05 54 12.3122 54 27.5C54 42.6878 66.3122 55 81.5 55L301.5 55V275C301.5 290.188 313.812 302.5 329 302.5C344.188 302.5 356.5 290.188 356.5 275V27.5ZM203.445 191.945L348.445 46.9454L309.555 8.05455L164.555 153.055L203.445 191.945Z" fill="black"/>
</g>
<mask id="mask1_389_154" style="mask-type:alpha" maskUnits="userSpaceOnUse" x="-120" y="-41" width="500" height="451">
<path d="M136.5 83.5C178.5 82 171.5 28 138 30C104.5 32 89.5 -22 89.5 -22L-118.5 -40L-53 392.5L314 408.5L379 242.5C379 242.5 328 270.5 328 225C328 179.5 271.5 177.5 271.5 225C271.5 272.5 221.5 215 221.5 215L89.5 113.5C89.5 113.5 94.5 85 136.5 83.5Z" fill="#D9D9D9" stroke="black"/>
</mask>
<g mask="url(#mask1_389_154)">
<rect x="28" y="56.5" width="272" height="273" rx="65" stroke="black" stroke-width="56"/>
</g>
</g>
<defs>
<clipPath id="clip0_389_154">
<rect width="356.5" height="357" fill="white"/>
</clipPath>
</defs>
</svg>
