<svg width="20" height="28" viewBox="0 0 20 28" fill="none" xmlns="http://www.w3.org/2000/svg">
<g clip-path="url(#clip0_397_190)">
<path d="M5 7H15C15.2652 7 15.5196 6.89464 15.7071 6.70711C15.8946 6.51957 16 6.26522 16 6C16 5.73478 15.8946 5.48043 15.7071 5.29289C15.5196 5.10536 15.2652 5 15 5H5C4.73478 5 4.48043 5.10536 4.29289 5.29289C4.10536 5.48043 4 5.73478 4 6C4 6.26522 4.10536 6.51957 4.29289 6.70711C4.48043 6.89464 4.73478 7 5 7Z" fill="black"/>
<path d="M5 11H15C15.2652 11 15.5196 10.8946 15.7071 10.7071C15.8946 10.5196 16 10.2652 16 10C16 9.73478 15.8946 9.48043 15.7071 9.29289C15.5196 9.10536 15.2652 9 15 9H5C4.73478 9 4.48043 9.10536 4.29289 9.29289C4.10536 9.48043 4 9.73478 4 10C4 10.2652 4.10536 10.5196 4.29289 10.7071C4.48043 10.8946 4.73478 11 5 11Z" fill="black"/>
<path d="M9 13H5C4.73478 13 4.48043 13.1054 4.29289 13.2929C4.10536 13.4804 4 13.7348 4 14C4 14.2652 4.10536 14.5196 4.29289 14.7071C4.48043 14.8946 4.73478 15 5 15H9C9.26522 15 9.51957 14.8946 9.70711 14.7071C9.89464 14.5196 10 14.2652 10 14C10 13.7348 9.89464 13.4804 9.70711 13.2929C9.51957 13.1054 9.26522 13 9 13Z" fill="black"/>
<line x1="19" y1="18" x2="19" y2="13" stroke="black" stroke-width="2"/>
<mask id="mask0_397_190" style="mask-type:alpha" maskUnits="userSpaceOnUse" x="-5" y="-4" width="28" height="38">
<path d="M20 13H18V11L14.5 12L8.5 14L7.5 24H18V18H20V24.5L23 34L-5 31.5L-2 -2L20 -4V13Z" fill="#D9D9D9"/>
</mask>
<g mask="url(#mask0_397_190)">
<path d="M26 11.414C26.0011 11.02 25.9241 10.6297 25.7733 10.2656C25.6226 9.90154 25.4013 9.57097 25.122 9.293C24.5504 8.74753 23.7906 8.44319 23.0005 8.44319C22.2104 8.44319 21.4506 8.74753 20.879 9.293L20 10.172V3C20 2.20435 19.6839 1.44129 19.1213 0.87868C18.5587 0.316071 17.7956 0 17 0H3C2.20435 0 1.44129 0.316071 0.87868 0.87868C0.316071 1.44129 0 2.20435 0 3V25C0 25.7956 0.316071 26.5587 0.87868 27.1213C1.44129 27.6839 2.20435 28 3 28H17C17.7956 28 18.5587 27.6839 19.1213 27.1213C19.6839 26.5587 20 25.7956 20 25V18.656L25.121 13.536C25.4007 13.2581 25.6224 12.9274 25.7733 12.5632C25.9242 12.1989 26.0013 11.8083 26 11.414ZM18 25C18 25.2652 17.8946 25.5196 17.7071 25.7071C17.5196 25.8946 17.2652 26 17 26H3C2.73478 26 2.48043 25.8946 2.29289 25.7071C2.10536 25.5196 2 25.2652 2 25V3C2 2.73478 2.10536 2.48043 2.29289 2.29289C2.48043 2.10536 2.73478 2 3 2H17C17.2652 2 17.5196 2.10536 17.7071 2.29289C17.8946 2.48043 18 2.73478 18 3V12.172L11.459 18.712C11.3222 18.8489 11.228 19.0226 11.188 19.212L10.436 22.793C10.4052 22.9386 10.4073 23.0893 10.4421 23.234C10.477 23.3788 10.5437 23.5139 10.6374 23.6296C10.7311 23.7452 10.8495 23.8385 10.9838 23.9026C11.1182 23.9667 11.2651 23.9999 11.414 24C11.4832 23.9999 11.5522 23.9929 11.62 23.979L15.201 23.226C15.3906 23.1861 15.5644 23.0915 15.701 22.954L18.001 20.654L18 25ZM23.707 12.121L14.5 21.33L12.709 21.706L13.085 19.916L22.294 10.707C22.4841 10.5245 22.7375 10.4226 23.001 10.4226C23.2645 10.4226 23.5179 10.5245 23.708 10.707C23.8955 10.8945 24.0008 11.1488 24.0008 11.414C24.0008 11.6792 23.8945 11.9335 23.707 12.121Z" fill="black"/>
</g>
</g>
<defs>
<clipPath id="clip0_397_190">
<rect width="20" height="28" fill="white"/>
</clipPath>
</defs>
</svg>
