<svg width="17" height="18" viewBox="0 0 17 18" fill="none" xmlns="http://www.w3.org/2000/svg">
<mask id="mask0_397_187" style="mask-type:alpha" maskUnits="userSpaceOnUse" x="0" y="0" width="19" height="18">
<path d="M1.1001 12.1798L11.6001 1.7498L12.8849 0.299805L15.6001 1.55934L18.6001 3.29957L4.1001 17.6898L0.600098 16.5596L1.1001 12.1798Z" fill="#D9D9D9"/>
</mask>
<g mask="url(#mask0_397_187)">
<line x1="14.3072" y1="3.26668" x2="3.3072" y2="14.2667" stroke="white" stroke-width="2"/>
<path d="M16.6001 3.97357C16.6012 3.57955 16.5241 3.18923 16.3734 2.82517C16.2227 2.46111 16.0014 2.13054 15.7221 1.85257C15.1505 1.3071 14.3907 1.00276 13.6006 1.00276C12.8105 1.00276 12.0507 1.3071 11.4791 1.85257L10.6001 2.73157V-4.44043C10.6001 -5.23608 10.284 -5.99914 9.72142 -6.56175C9.15881 -7.12436 8.39575 -7.44043 7.6001 -7.44043H-6.3999C-7.19555 -7.44043 -7.95861 -7.12436 -8.52122 -6.56175C-9.08383 -5.99914 -9.3999 -5.23608 -9.3999 -4.44043V17.5596C-9.3999 18.3552 -9.08383 19.1183 -8.52122 19.6809C-7.95861 20.2435 -7.19555 20.5596 -6.3999 20.5596H7.6001C8.39575 20.5596 9.15881 20.2435 9.72142 19.6809C10.284 19.1183 10.6001 18.3552 10.6001 17.5596V11.2156L15.7211 6.09557C16.0008 5.81767 16.2225 5.48699 16.3734 5.12273C16.5243 4.75846 16.6014 4.36785 16.6001 3.97357ZM8.6001 17.5596C8.6001 17.8248 8.49474 18.0791 8.3072 18.2667C8.11967 18.4542 7.86531 18.5596 7.6001 18.5596H-6.3999C-6.66512 18.5596 -6.91947 18.4542 -7.10701 18.2667C-7.29455 18.0791 -7.3999 17.8248 -7.3999 17.5596V-4.44043C-7.3999 -4.70565 -7.29455 -4.96 -7.10701 -5.14754C-6.91947 -5.33507 -6.66512 -5.44043 -6.3999 -5.44043H7.6001C7.86531 -5.44043 8.11967 -5.33507 8.3072 -5.14754C8.49474 -4.96 8.6001 -4.70565 8.6001 -4.44043V4.73157L2.0591 11.2716C1.92228 11.4085 1.82813 11.5822 1.7881 11.7716L1.0361 15.3526C1.00528 15.4982 1.00737 15.6489 1.04221 15.7936C1.07705 15.9383 1.14376 16.0735 1.23748 16.1891C1.33119 16.3048 1.44955 16.3981 1.58391 16.4621C1.71826 16.5262 1.86524 16.5595 2.0141 16.5596C2.08329 16.5595 2.1523 16.5524 2.2201 16.5386L5.8011 15.7856C5.99073 15.7456 6.16454 15.6511 6.3011 15.5136L8.6011 13.2136L8.6001 17.5596ZM14.3071 4.68057L5.1001 13.8896L3.3091 14.2656L3.6851 12.4756L12.8941 3.26657C13.0842 3.08408 13.3376 2.98218 13.6011 2.98218C13.8646 2.98218 14.118 3.08408 14.3081 3.26657C14.4956 3.4541 14.6009 3.70841 14.6009 3.97357C14.6009 4.23874 14.4946 4.49304 14.3071 4.68057Z" fill="black"/>
</g>
</svg>
