<svg width="19" height="19" viewBox="0 0 19 19" fill="none" xmlns="http://www.w3.org/2000/svg">
<path d="M9.5 2.25625C10.8775 2.25625 11.9938 3.3725 11.9938 4.75C11.9938 6.1275 10.8775 7.24375 9.5 7.24375C8.1225 7.24375 7.00625 6.1275 7.00625 4.75C7.00625 3.3725 8.1225 2.25625 9.5 2.25625ZM9.5 12.9437C13.0269 12.9437 16.7438 14.6775 16.7438 15.4375V16.7438H2.25625V15.4375C2.25625 14.6775 5.97312 12.9437 9.5 12.9437ZM9.5 0C6.87562 0 4.75 2.12562 4.75 4.75C4.75 7.37438 6.87562 9.5 9.5 9.5C12.1244 9.5 14.25 7.37438 14.25 4.75C14.25 2.12562 12.1244 0 9.5 0ZM9.5 10.6875C6.32937 10.6875 0 12.2787 0 15.4375V17.8125C0 18.4656 0.534375 19 1.1875 19H17.8125C18.4656 19 19 18.4656 19 17.8125V15.4375C19 12.2787 12.6706 10.6875 9.5 10.6875Z" fill="black"/>
</svg>
