<svg xmlns="http://www.w3.org/2000/svg" xmlns:xlink="http://www.w3.org/1999/xlink" xml:space="preserve" version="1.1" style="shape-rendering:geometricPrecision;text-rendering:geometricPrecision;image-rendering:optimizeQuality;" viewBox="5 50 330 235" x="0px" y="0px" fill-rule="evenodd" clip-rule="evenodd"><defs><style type="text/css">
   
    .fil0 {fill:black;fill-rule:nonzero}
   
  </style></defs><g><path class="fil0" d="M206 54l7 0c8,0 14,6 14,14l0 169c0,7 -6,13 -14,13l-7 0c-7,0 -13,-5 -14,-12 -20,-18 -43,-29 -70,-34l20 64c2,7 1,10 -5,11l-39 0c-3,1 -8,-2 -10,-10l-21 -69c-13,0 -23,0 -33,-10l-10 0c-8,0 -14,-6 -14,-13l0 -50c0,-8 6,-12 14,-12l10 0c6,-7 14,-11 22,-11 56,0 92,-3 136,-39 1,-6 7,-11 14,-11l0 0zm51 105c-7,0 -7,-12 0,-12l60 0c9,0 9,12 0,12l-60 0zm54 65c7,5 -1,14 -7,10l-51 -39c-6,-5 2,-16 8,-10l50 39zm-50 -103c-6,6 -14,-4 -8,-9l51 -39c6,-6 14,5 7,9l-50 39zm-69 100l0 -140c-44,33 -81,36 -136,36 -8,0 -15,6 -15,16l0 39c0,8 7,15 15,15 53,0 94,1 136,34l0 0zm13 16c0,0 1,0 1,0l7 0c1,0 1,0 1,0l0 -169c0,-1 -1,-1 -1,-1l-7 0c0,0 -1,0 -1,1l0 169zm-177 -110c0,0 -4,-1 -6,1l0 49c0,1 6,0 6,0l0 -50zm101 140l-20 -66c-12,-1 -19,-1 -29,-1l20 67 29 0z"/></g></svg>