<svg xmlns="http://www.w3.org/2000/svg" version="1.1" viewBox="5 5 87 82">
 <g>
  <path d="m91.16 29.227-28.32 16.352-5.6797-22.703 28.32-16.352zm-25.078 8.7031 19.312-11.148-3.1562-12.609-19.312 11.148z"/>
  <path d="m39.199 59.227-28.32 16.352-5.6797-22.703 28.32-16.352zm-25.078 8.7031 19.312-11.148-3.1602-12.609-19.312 11.148z"/>
  <path d="m42.555 31.309c-2.3906 1.3789-3.2109 4.4375-1.832 6.8281l4.4414 7.6914c1.3789 2.3906 4.4375 3.2109 6.8281 1.832 2.3945-1.3828 3.2109-4.4414 1.832-6.832l-4.4414-7.6914c-0.66016-1.1484-1.7539-1.9844-3.0352-2.3281s-2.6445-0.16406-3.793 0.5m-2.5-4.332c2.2969-1.3242 5.0273-1.6836 7.5859-0.99609 2.5625 0.68359 4.7461 2.3594 6.0742 4.6562l4.4375 7.6914c2.7617 4.7852 1.125 10.898-3.6602 13.66-4.7812 2.7617-10.898 1.125-13.66-3.6602l-4.4375-7.6914c-2.7617-4.7812-1.125-10.898 3.6602-13.66z"/>
  <path d="m70.461 54.645-21.652 12.5-1.25-2.1641h0.003906c-3.4531-5.9766-1.4062-13.621 4.5742-17.074 5.9766-3.4531 13.625-1.4023 17.074 4.5742zm-19.449 5.457 12.246-7.0703c-2.4141-2.0625-5.8672-2.3828-8.6211-0.79297-2.75 1.5898-4.2031 4.7383-3.625 7.8633z"/>
  <path d="m58.387 58.73c1.1953-0.69141 2.7227-0.28125 3.4141 0.91406l0.039063 0.066407c0.6875 1.1953 0.28125 2.7266-0.91797 3.4141-0.57422 0.33203-1.2539 0.42188-1.8945 0.25s-1.1875-0.58984-1.5195-1.1641l-0.035156-0.066407c-0.33203-0.57422-0.42188-1.2539-0.25-1.8945s0.58984-1.1875 1.1641-1.5195z"/>
  <path d="m52.367 34.305 6.9297-4 2.5 4.332-6.9297 4z"/>
  <path d="m33.312 45.305 8.6602-5 2.5 4.332-8.6602 5z"/>
  <path d="m57.258 74.457c-1.332-0.35547-2.125-1.7266-1.7656-3.0625 0.35547-1.332 1.7266-2.125 3.0625-1.7656 4 1.0703 8.1133-1.3047 9.1836-5.3047 0.35938-1.332 1.7305-2.125 3.0625-1.7695 1.3359 0.35937 2.125 1.7305 1.7695 3.0625-0.85937 3.2031-2.9531 5.9336-5.8242 7.5898-2.8711 1.6602-6.2852 2.1094-9.4883 1.25z"/>
  <path d="m54.672 84.113c-1.3359-0.35547-2.1289-1.7266-1.7695-3.0625 0.35547-1.332 1.7266-2.125 3.0625-1.7656 4.4805 1.1992 9.2578 0.57031 13.277-1.75 4.0195-2.3203 6.9531-6.1406 8.1562-10.625 0.35547-1.332 1.7266-2.125 3.0586-1.7695 1.3359 0.35938 2.1289 1.7305 1.7695 3.0625-1.5508 5.7617-5.3203 10.672-10.488 13.652-5.168 2.9844-11.305 3.7969-17.066 2.2578z"/>
 </g>
</svg>