<svg width="21" height="21" viewBox="0 0 21 21" fill="none" xmlns="http://www.w3.org/2000/svg">
<path d="M20.882 17.3966L19.3877 15.9L17.8934 14.4364L14.9113 11.4171C14.8496 11.3603 14.7689 11.3289 14.6852 11.3289C14.6014 11.3289 14.5207 11.3603 14.459 11.4171L13.1482 12.7298L12.7615 12.3425L14.9375 10.1634L15.6715 9.43485C15.7858 9.31312 15.8495 9.15233 15.8495 8.98524C15.8495 8.81816 15.7858 8.65736 15.6715 8.53563L14.2886 7.13757L14.7474 6.67812C15.6149 7.47498 16.7427 7.92771 17.9196 7.95147C18.3725 7.96059 18.8228 7.88005 19.2445 7.71447C19.6663 7.5489 20.0513 7.30155 20.3774 6.98661C20.4356 6.92422 20.4683 6.84226 20.4691 6.75688C20.4692 6.71547 20.4612 6.67445 20.4454 6.63615C20.4297 6.59786 20.4066 6.56305 20.3774 6.53372L17.6312 3.79011L18.3849 3.03529C18.5398 3.11987 18.7132 3.16495 18.8896 3.16657C19.1764 3.16657 19.4515 3.05247 19.6543 2.84936C19.8571 2.64626 19.971 2.37079 19.971 2.08356C19.971 1.79634 19.8571 1.52087 19.6543 1.31777C19.4515 1.11466 19.1764 1.00056 18.8896 1.00056C18.7473 0.999692 18.6063 1.02711 18.4747 1.08123C18.3431 1.13534 18.2236 1.21508 18.123 1.31582C18.0224 1.41656 17.9428 1.5363 17.8887 1.66809C17.8347 1.79988 17.8073 1.9411 17.8082 2.08356C17.809 2.26036 17.854 2.43413 17.9393 2.58897L17.1855 3.33722L14.4197 0.593617C14.358 0.536883 14.2773 0.505401 14.1936 0.505401C14.1099 0.505401 14.0292 0.536883 13.9675 0.593617C12.5584 2.0048 12.7157 4.47273 14.269 6.23179L13.8167 6.68468L12.4535 5.29319C12.3319 5.17874 12.1714 5.11501 12.0045 5.11501C11.8377 5.11501 11.6771 5.17874 11.5556 5.29319L10.8215 6.02175L8.64559 8.20088L8.26545 7.82019L9.57626 6.50746C9.60559 6.47819 9.62886 6.44341 9.64474 6.40512C9.66062 6.36682 9.66879 6.32577 9.66879 6.2843C9.66879 6.24283 9.66062 6.20178 9.64474 6.16348C9.62886 6.12519 9.60559 6.09041 9.57626 6.06114L8.07538 4.59088L6.55484 3.07468L5.08673 1.58473L3.59895 0.0882158C3.53728 0.0314818 3.45658 0 3.37284 0C3.28909 0 3.2084 0.0314818 3.14672 0.0882158L1.11496 2.12951L0.0925293 3.14688C0.0632007 3.17615 0.03993 3.21093 0.0240517 3.24922C0.00817348 3.28752 0 3.32857 0 3.37004C0 3.41151 0.00817348 3.45256 0.0240517 3.49086C0.03993 3.52915 0.0632007 3.56393 0.0925293 3.5932L1.58686 5.08972L4.58862 8.08274L6.08295 9.57269C6.11169 9.60311 6.1462 9.62748 6.18446 9.64439C6.22273 9.66129 6.26397 9.67039 6.30578 9.67114C6.34865 9.67089 6.39102 9.66205 6.43042 9.64514C6.46982 9.62823 6.50544 9.6036 6.53518 9.57269L7.84599 8.25996L8.23268 8.64065L5.2899 11.5615C5.1728 11.6831 5.10706 11.8454 5.10639 12.0144C5.10873 12.1811 5.17435 12.3407 5.2899 12.4607L5.55862 12.7298L5.24403 13.0711C5.12847 13.1911 5.06285 13.3507 5.06051 13.5174C5.06118 13.6864 5.12692 13.8487 5.24403 13.9703L7.02018 15.7491C7.14167 15.8664 7.30366 15.9322 7.47241 15.9329C7.63888 15.9305 7.79823 15.8648 7.91808 15.7491L8.2589 15.4078L8.52106 15.6703C8.64151 15.79 8.80362 15.8582 8.97329 15.8607C9.05668 15.8615 9.13935 15.8451 9.21606 15.8123C9.29277 15.7795 9.36186 15.7312 9.41897 15.6703L12.329 12.7626L12.7091 13.1433L12.4273 13.4321L11.4048 14.4757C11.3452 14.536 11.3118 14.6174 11.3118 14.7022C11.3118 14.787 11.3452 14.8684 11.4048 14.9286L12.8992 16.4054L14.4197 17.9151L15.9075 19.4116L17.4018 20.9081C17.4641 20.9664 17.546 20.9992 17.6312 21C17.7143 20.9982 17.7938 20.9654 17.854 20.9081L18.8699 19.8842L20.9082 17.8494C20.9664 17.7871 20.9992 17.7051 21 17.6197C20.9968 17.5764 20.9846 17.5342 20.9643 17.4958C20.944 17.4574 20.916 17.4236 20.882 17.3966ZM18.575 1.76851C18.6161 1.72674 18.665 1.69361 18.7191 1.67106C18.7731 1.64852 18.8311 1.63702 18.8896 1.63724C19.0064 1.6378 19.1187 1.68232 19.2042 1.76195C19.2495 1.80374 19.2856 1.85449 19.3103 1.91097C19.335 1.96746 19.3478 2.02846 19.3478 2.09013C19.3478 2.1518 19.335 2.2128 19.3103 2.26929C19.2856 2.32577 19.2495 2.37651 19.2042 2.41831C19.1612 2.46141 19.1101 2.4956 19.0538 2.51892C18.9976 2.54224 18.9373 2.55425 18.8765 2.55425C18.8156 2.55425 18.7554 2.54224 18.6991 2.51892C18.6429 2.4956 18.5918 2.46141 18.5488 2.41831C18.5057 2.37521 18.4716 2.32405 18.4483 2.26774C18.425 2.21143 18.413 2.15108 18.413 2.09013C18.413 2.02918 18.425 1.96883 18.4483 1.91252C18.4716 1.85621 18.5057 1.80504 18.5488 1.76195L18.575 1.76851ZM14.2296 1.30905L19.663 6.74375C18.4046 7.7283 16.3532 7.43294 14.9375 6.01519C13.5415 4.59088 13.2531 2.54302 14.2296 1.30905ZM18.7126 16.156L18.1424 16.7205L17.1003 15.6769L17.6968 15.0927L18.7126 16.156ZM16.6547 16.156L17.6968 17.1471L17.1265 17.7182L16.0845 16.668L16.6547 16.156ZM15.6322 16.2742L14.5901 15.2306L15.1603 14.6595L16.2024 15.7031L15.6322 16.2742ZM17.2183 14.6858L16.6547 15.2568L15.6126 14.2066L16.1762 13.6421L17.2183 14.6858ZM14.6884 12.1456L15.7305 13.1236L15.1603 13.6947L14.1182 12.6642L14.6884 12.1456ZM13.3776 13.4584L13.6529 13.1761L14.695 14.2198L14.1313 14.7908L13.1089 13.6815L13.3776 13.4584ZM12.0013 5.74608L15.2324 8.98196L14.7278 9.4808L11.4966 6.24492L12.0013 5.74608ZM7.41342 4.79435L6.84322 5.36539L5.78801 4.32177L6.35822 3.75073L7.41342 4.79435ZM5.35544 4.79435L6.38443 5.81828L5.81423 6.38932L4.77213 5.33913L5.35544 4.79435ZM4.33301 4.9125L3.27781 3.84919L3.84801 3.27815L4.89011 4.32177L4.33301 4.9125ZM5.89943 3.27815L5.33578 3.84262L4.29369 2.82526L4.86389 2.26078L5.89943 3.27815ZM3.36956 0.764272L4.41821 1.80789L3.84801 2.37893L2.80591 1.30905L3.36956 0.764272ZM2.35368 1.78164L3.39578 2.82526L2.83213 3.39629L1.78348 2.35267L2.35368 1.78164ZM0.767598 3.37004L1.31159 2.799L2.35368 3.84919L1.78348 4.41366L0.767598 3.37004ZM2.26193 4.86655L2.83213 4.29551L3.87423 5.33913L3.27781 5.90361L2.26193 4.86655ZM3.7497 6.36306L4.3199 5.79203L5.362 6.83565L4.79835 7.40668L3.7497 6.36306ZM6.28612 8.9032L5.24403 7.8727L5.81423 7.30823L6.85633 8.35185L6.28612 8.9032ZM7.59694 7.59047L7.31511 7.8727L6.26646 6.83565L6.83011 6.26461L7.86565 7.30823L7.59694 7.59047ZM7.28234 5.81828L7.86565 5.24724L8.90775 6.29086L8.33754 6.8619L7.28234 5.81828ZM7.47241 15.3224L5.66349 13.5174L6.0043 13.1761L7.81322 14.9877L7.47241 15.3224ZM8.97329 15.2502L5.74213 12.0144L8.86842 8.87694L11.0444 6.69781L13.5349 9.18543L14.2821 9.93369L8.97329 15.2502ZM12.0799 14.6989L12.6501 14.1344L13.6922 15.178L13.1089 15.7491L12.0799 14.6989ZM13.5742 16.1954L14.1444 15.6244L15.1865 16.668L14.6163 17.239L13.5742 16.1954ZM15.0751 17.7182L15.6388 17.1471L16.6874 18.1908L16.1172 18.7618L15.0751 17.7182ZM17.6115 20.2583L16.5629 19.2081L17.1331 18.6437L18.1686 19.6873L17.6115 20.2583ZM18.6274 19.2344L17.5853 18.1908L18.149 17.6197L19.1976 18.6699L18.6274 19.2344ZM19.663 18.1908L18.6209 17.1471L19.1911 16.5761L20.2332 17.6197L19.663 18.1908Z" fill="black"/>
</svg>
