<svg width="57" height="57" viewBox="0 0 57 57" fill="none" xmlns="http://www.w3.org/2000/svg">
<path d="M28.4715 0C12.7395 0 0 12.768 0 28.5C0 44.232 12.7395 57 28.4715 57C44.232 57 57 44.232 57 28.5C57 12.768 44.232 0 28.4715 0ZM48.222 17.1H39.8145C38.9025 13.5375 37.5915 10.1175 35.8815 6.954C41.1255 8.7495 45.486 12.3975 48.222 17.1ZM28.5 5.814C30.8655 9.234 32.718 13.0245 33.9435 17.1H23.0565C24.282 13.0245 26.1345 9.234 28.5 5.814ZM6.441 34.2C5.985 32.376 5.7 30.4665 5.7 28.5C5.7 26.5335 5.985 24.624 6.441 22.8H16.074C15.846 24.681 15.675 26.562 15.675 28.5C15.675 30.438 15.846 32.319 16.074 34.2H6.441ZM8.778 39.9H17.1855C18.0975 43.4625 19.4085 46.8825 21.1185 50.046C15.8745 48.2505 11.514 44.631 8.778 39.9ZM17.1855 17.1H8.778C11.514 12.369 15.8745 8.7495 21.1185 6.954C19.4085 10.1175 18.0975 13.5375 17.1855 17.1ZM28.5 51.186C26.1345 47.766 24.282 43.9755 23.0565 39.9H33.9435C32.718 43.9755 30.8655 47.766 28.5 51.186ZM35.169 34.2H21.831C21.5745 32.319 21.375 30.438 21.375 28.5C21.375 26.562 21.5745 24.6525 21.831 22.8H35.169C35.4255 24.6525 35.625 26.562 35.625 28.5C35.625 30.438 35.4255 32.319 35.169 34.2ZM35.8815 50.046C37.5915 46.8825 38.9025 43.4625 39.8145 39.9H48.222C45.486 44.6025 41.1255 48.2505 35.8815 50.046ZM40.926 34.2C41.154 32.319 41.325 30.438 41.325 28.5C41.325 26.562 41.154 24.681 40.926 22.8H50.559C51.015 24.624 51.3 26.5335 51.3 28.5C51.3 30.4665 51.015 32.376 50.559 34.2H40.926Z" fill="black"/>
</svg>
