<svg width="200" height="252" viewBox="0 0 200 252" fill="none" xmlns="http://www.w3.org/2000/svg">
<path d="M100 110.756C104.945 110.756 109.778 109.277 113.889 106.506C118 103.734 121.205 99.7952 123.097 95.1865C124.989 90.5778 125.484 85.5064 124.52 80.6138C123.555 75.7212 121.174 71.2271 117.678 67.6997C114.181 64.1724 109.727 61.7702 104.877 60.797C100.028 59.8238 95.0011 60.3233 90.4329 62.2323C85.8648 64.1413 81.9603 67.3741 79.2133 71.5218C76.4662 75.6696 75 80.546 75 85.5344C75 92.2237 77.6339 98.6391 82.3223 103.369C87.0107 108.099 93.3696 110.756 100 110.756ZM91.125 197.899C92.287 199.081 93.6695 200.019 95.1928 200.659C96.716 201.299 98.3499 201.629 100 201.629C101.65 201.629 103.284 201.299 104.807 200.659C106.33 200.019 107.713 199.081 108.875 197.899L160 146.193C171.874 134.22 179.962 118.962 183.241 102.351C186.519 85.7391 184.841 68.5197 178.419 52.8705C171.996 37.2212 161.117 23.8452 147.159 14.4342C133.2 5.02318 116.789 0 100 0C83.2114 0 66.7999 5.02318 52.8414 14.4342C38.8828 23.8452 28.0042 37.2212 21.5815 52.8705C15.1588 68.5197 13.4806 85.7391 16.7591 102.351C20.0376 118.962 28.1256 134.22 40 146.193L91.125 197.899ZM40.375 79.7334C41.2291 70.7419 44.0627 62.0564 48.6691 54.311C53.2754 46.5655 59.5381 39.9557 67 34.9642C76.8025 28.4708 88.2733 25.0111 100 25.0111C111.727 25.0111 123.197 28.4708 133 34.9642C140.412 39.9386 146.639 46.5083 151.234 54.2009C155.829 61.8934 158.677 70.5176 159.573 79.4532C160.47 88.3889 159.392 97.4139 156.419 105.879C153.445 114.345 148.649 122.04 142.375 128.412L100 171.163L57.625 128.412C51.344 122.102 46.5366 114.458 43.5526 106.037C40.5685 97.6167 39.483 88.6307 40.375 79.7334ZM187.5 226.778H12.5C9.18479 226.778 6.00537 228.107 3.66117 230.472C1.31696 232.837 0 236.044 0 239.389C0 242.734 1.31696 245.941 3.66117 248.306C6.00537 250.671 9.18479 252 12.5 252H187.5C190.815 252 193.995 250.671 196.339 248.306C198.683 245.941 200 242.734 200 239.389C200 236.044 198.683 232.837 196.339 230.472C193.995 228.107 190.815 226.778 187.5 226.778Z" fill="black"/>
</svg>
