<svg width="62" height="63" viewBox="0 0 62 63" fill="none" xmlns="http://www.w3.org/2000/svg">
<path d="M60.9815 56.5919L49.2741 44.919C53.0514 40.1068 55.101 34.1643 55.0934 28.0467C55.0934 22.5985 53.4778 17.2726 50.4509 12.7426C47.424 8.21255 43.1218 4.68182 38.0883 2.59688C33.0548 0.511935 27.5161 -0.0335805 22.1726 1.02931C16.8291 2.09221 11.9207 4.71578 8.06825 8.56825C4.21578 12.4207 1.59221 17.3291 0.529314 22.6726C-0.533581 28.0161 0.0119355 33.5548 2.09688 38.5883C4.18182 43.6218 7.71255 47.924 12.2426 50.9509C16.7726 53.9778 22.0985 55.5934 27.5467 55.5934C33.6643 55.601 39.6068 53.5514 44.419 49.7741L56.0919 61.4815C56.412 61.8042 56.7929 62.0604 57.2125 62.2352C57.6321 62.41 58.0821 62.5 58.5367 62.5C58.9913 62.5 59.4413 62.41 59.8609 62.2352C60.2805 62.0604 60.6614 61.8042 60.9815 61.4815C61.3042 61.1614 61.5604 60.7805 61.7352 60.3609C61.91 59.9413 62 59.4913 62 59.0367C62 58.5821 61.91 58.1321 61.7352 57.7125C61.5604 57.2929 61.3042 56.912 60.9815 56.5919ZM6.88668 28.0467C6.88668 23.9605 8.09837 19.9661 10.3685 16.5686C12.6387 13.1711 15.8653 10.523 19.6404 8.95933C23.4156 7.39562 27.5696 6.98649 31.5773 7.78366C35.5849 8.58083 39.2662 10.5485 42.1555 13.4379C45.0449 16.3272 47.0126 20.0085 47.8097 24.0161C48.6069 28.0238 48.1978 32.1778 46.634 35.9529C45.0703 39.7281 42.4223 42.9547 39.0248 45.2249C35.6273 47.495 31.6329 48.7067 27.5467 48.7067C22.0673 48.7067 16.8124 46.53 12.9379 42.6555C9.06336 38.781 6.88668 33.5261 6.88668 28.0467Z" fill="black"/>
</svg>
